Coordinates
version=1
nRows=24
nColumns=22
inDegrees=yes

Units are S.I. units (second, meters, Newtons, ...)
If the header above contains a line with 'inDegrees', this indicates whether rotational values are in degrees (yes) or radians (no).

endheader
time	pelvis_tilt	pelvis_list	pelvis_rotation	pelvis_tx	pelvis_ty	pelvis_tz	hip_flexion_r	hip_adduction_r	hip_rotation_r	knee_angle_r	ankle_angle_r	subtalar_angle_r	hip_flexion_l	hip_adduction_l	hip_rotation_l	knee_angle_l	ankle_angle_l	subtalar_angle_l	lumbar_extension	lumbar_bending	lumbar_rotation
      1.40000000	     -5.99669625	     -4.17467726	      1.24010616	     -1.67378829	      1.00301132	      0.01605356	      6.37190931	      6.77842562	     -4.23481523	    -15.51366063	     11.37533656	     -2.99704948	      6.55894345	    -10.85243116	     -7.34988064	    -16.58630017	     12.49603125	      4.40110277	     -2.95815039	      2.25281225	     -2.55289195
      1.41000000	     -6.02598432	     -4.21353605	      1.24458848	     -1.67313596	      1.00263216	      0.01733454	      6.41395191	      6.90151122	     -4.21981080	    -15.61401810	     11.46344441	     -3.10766745	      7.33351255	    -11.05534422	     -7.11806719	    -18.01751363	     12.56720905	      4.64228281	     -3.00880602	      2.34326629	     -2.55211785
      1.42000000	     -5.99473388	     -4.25791758	      1.25386921	     -1.67245909	      1.00233462	      0.01861024	      6.39729072	      7.03202214	     -4.20523567	    -15.73009149	     11.56496623	     -3.20203297	      8.09755849	    -11.26213625	     -6.84975639	    -19.54525202	     12.59050736	      4.82752353	     -3.13619185	      2.44023511	     -2.53709330
      1.43000000	     -5.96747828	     -4.26702629	      1.27636607	     -1.67172242	      1.00205183	      0.01984724	      6.37558578	      7.12347434	     -4.18954054	    -15.83564519	     11.66353972	     -3.30817411	      8.92650056	    -11.42801256	     -6.58324412	    -21.18068327	     12.49591646	      5.04708784	     -3.25126159	      2.49719191	     -2.52635606
      1.44000000	     -5.90322408	     -4.25569044	      1.30763578	     -1.67094225	      1.00185170	      0.02109432	      6.30790225	      7.19632102	     -4.17101432	    -15.93330473	     11.76872517	     -3.40917186	      9.77120501	    -11.57250874	     -6.31349627	    -22.91191082	     12.30040538	      5.24654472	     -3.41110257	      2.52285891	     -2.51210289
      1.45000000	     -5.81812540	     -4.22290308	      1.35216759	     -1.67010693	      1.00171866	      0.02232380	      6.20895612	      7.24746120	     -4.15373240	    -16.01957234	     11.87378670	     -3.50708670	     10.65175491	    -11.69196867	     -6.04430040	    -24.73885829	     11.99721496	      5.43119775	     -3.59199687	      2.51879781	     -2.49883317
      1.46000000	     -5.71438321	     -4.16679437	      1.41018699	     -1.66921197	      1.00165405	      0.02353123	      6.07889540	      7.27434187	     -4.13617530	    -16.09124201	     11.97079426	     -3.60014022	     11.56892325	    -11.78379719	     -5.78223274	    -26.65318730	     11.59947141	      5.59004603	     -3.79119159	      2.48194411	     -2.48739856
      1.47000000	     -5.59566320	     -4.09300163	      1.48196525	     -1.66824594	      1.00165207	      0.02470643	      5.91830695	      7.28179629	     -4.12341075	    -16.14361273	     12.06544608	     -3.68752523	     12.52385658	    -11.85380251	     -5.53876891	    -28.64150126	     11.12485401	      5.70666470	     -4.00229804	      2.42077427	     -2.47819139
      1.48000000	     -5.45897845	     -4.01166546	      1.56501343	     -1.66720853	      1.00171759	      0.02585377	      5.72256227	      7.28163578	     -4.11090539	    -16.17385369	     12.14664764	     -3.75865369	     13.50379873	    -11.90725267	     -5.29942577	    -30.67575960	     10.59293196	      5.75578956	     -4.23047751	      2.34452582	     -2.46796645
      1.49000000	     -5.31034134	     -3.92241848	      1.65328718	     -1.66608159	      1.00183208	      0.02695273	      5.49638671	      7.27039175	     -4.10087777	    -16.18144918	     12.22537691	     -3.81474676	     14.50441501	    -11.94418690	     -5.09107315	    -32.72912629	     10.04265667	      5.72744192	     -4.46396995	      2.25853224	     -2.44823906
      1.50000000	     -5.15410190	     -3.83135532	      1.74185132	     -1.66486109	      1.00198178	      0.02800361	      5.24508335	      7.25417532	     -4.09316295	    -16.16876201	     12.30005963	     -3.85299019	     15.51641319	    -11.96874963	     -4.91856060	    -34.76444129	      9.51706443	      5.61194980	     -4.69906892	      2.17021430	     -2.41548505
      1.51000000	     -4.99346089	     -3.74118790	      1.82645441	     -1.66354367	      1.00215988	      0.02900642	      4.97128885	      7.23571897	     -4.08427203	    -16.13412457	     12.36417114	     -3.87050762	     16.52603026	    -11.98092586	     -4.78629001	    -36.73481676	      9.05762600	      5.41390663	     -4.93125495	      2.08209484	     -2.36764811
      1.52000000	     -4.83415608	     -3.64872747	      1.89956411	     -1.66211907	      1.00235308	      0.02995335	      4.68192483	      7.21038815	     -4.07231919	    -16.08124706	     12.42831332	     -3.87128632	     17.52161570	    -11.97701309	     -4.71093431	    -38.59632473	      8.70060919	      5.14721508	     -5.15304091	      1.99320397	     -2.29608287
      1.53000000	     -4.68524000	     -3.55005898	      1.95730898	     -1.66058234	      1.00254719	      0.03084481	      4.38677307	      7.17357903	     -4.05762365	    -16.01220031	     12.49470879	     -3.85889629	     18.49677690	    -11.95168587	     -4.70034825	    -40.30527435	      8.46499408	      4.82976367	     -5.35390558	      1.89842969	     -2.19874598
      1.54000000	     -4.55165878	     -3.43935151	      1.99897352	     -1.65893395	      1.00273664	      0.03168094	      4.09087153	      7.11904480	     -4.03860171	    -15.92660079	     12.56297239	     -3.83726907	     19.44412561	    -11.89830662	     -4.76310347	    -41.82388012	      8.34788373	      4.49327806	     -5.52908057	      1.79059421	     -2.07886233
      1.55000000	     -4.44116740	     -3.31546154	      2.02630664	     -1.65717582	      1.00291180	      0.03245960	      3.80353248	      7.04552297	     -4.01611671	    -15.82598535	     12.63112195	     -3.80988733	     20.36453051	    -11.81471722	     -4.89959229	    -43.12451647	      8.33346526	      4.16541165	     -5.67022874	      1.66748330	     -1.94042983
      1.56000000	     -4.35656514	     -3.17605366	      2.03957436	     -1.65530777	      1.00306850	      0.03318785	      3.53048746	      6.95096175	     -3.98991443	    -15.71564658	     12.70095968	     -3.77971994	     21.25460717	    -11.69826760	     -5.10913057	    -44.18680418	      8.39714162	      3.86572466	     -5.77532430	      1.52479714	     -1.78447308
      1.57000000	     -4.29634515	     -3.02326778	      2.04372920	     -1.65333544	      1.00320827	      0.03386372	      3.27220967	      6.83782951	     -3.95720955	    -15.59840415	     12.77054011	     -3.74696790	     22.11162489	    -11.54949730	     -5.38144821	    -44.99942003	      8.50854629	      3.60173668	     -5.84823166	      1.36549293	     -1.61819154
      1.58000000	     -4.24215784	     -2.85608181	      2.04552184	     -1.65124774	      1.00335284	      0.03448993	      3.00352202	      6.70911609	     -3.89794971	    -15.46555679	     12.84761382	     -3.72288919	     22.91098447	    -11.36180165	     -5.69265955	    -45.55328990	      8.69168600	      3.42743729	     -5.91097451	      1.18813442	     -1.45840955
      1.59000000	     -4.23747000	     -2.69187820	      2.02731061	     -1.64907585	      1.00343004	      0.03509864	      2.79754450	      6.57617887	     -3.85975340	    -15.36009914	     12.91728114	     -3.67862804	     23.70994956	    -11.16777067	     -6.06729343	    -45.86552804	      8.81389433	      3.21951866	     -5.91414758	      1.00916005	     -1.26428512
      1.60000000	     -4.23171654	     -2.52445910	      2.01680175	     -1.64679307	      1.00350741	      0.03564048	      2.57586916	      6.43848597	     -3.80527188	    -15.24009405	     12.98713426	     -3.63663992	     24.44742508	    -10.93907359	     -6.44060708	    -45.92477137	      8.97321680	      3.07613124	     -5.91907858	      0.82821566	     -1.09364886
      1.61000000	     -4.23646660	     -2.35751501	      2.00797595	     -1.64440434	      1.00355467	      0.03614212	      2.36107847	      6.29918306	     -3.74553633	    -15.12443980	     13.06196918	     -3.59049089	     25.13857589	    -10.68549302	     -6.81537761	    -45.74221397	      9.11780319	      2.97363079	     -5.91155590	      0.64380648	     -0.92364378
      1.62000000	     -4.24455578	     -2.19568922	      2.00334347	     -1.64190598	      1.00356799	      0.03658178	      2.14526091	      6.16104462	     -3.69407769	    -15.01267838	     13.14406540	     -3.54104359	     25.77814321	    -10.40869026	     -7.17555723	    -45.32808503	      9.24023272	      2.91256433	     -5.90097928	      0.46637068	     -0.75563150
      1.63000000	     -4.25193511	     -2.04168236	      2.00592920	     -1.63929973	      1.00353740	      0.03697353	      1.92387712	      6.02833592	     -3.65288497	    -14.90368923	     13.23506914	     -3.48676568	     26.36430156	    -10.11175784	     -7.50923912	    -44.69334442	      9.33400162	      2.88983952	     -5.89446455	      0.29580750	     -0.59505858
